<svg id="圖層_1" data-name="圖層 1" xmlns="http://www.w3.org/2000/svg" viewBox="0 0 484.26 484.26"><defs><style>.cls-1{fill:#fff;stroke:#000;stroke-miterlimit:10;}</style></defs><title>QRCODE 1223</title><line class="cls-1" x1="41.24" y1="242.13" x2="443.02" y2="242.13"/><path class="cls-1" d="M474.26,94.89a9,9,0,0,1-9-9V18H397.37a9,9,0,0,1,0-18h75.37a10.53,10.53,0,0,1,10.52,10.52V85.89A9,9,0,0,1,474.26,94.89Z" transform="translate(0.5 0.5)"/><path class="cls-1" d="M388.37,474.26a9,9,0,0,1,9-9h67.89V397.37a9,9,0,0,1,18,0v75.37a10.53,10.53,0,0,1-10.52,10.52H397.37A9,9,0,0,1,388.37,474.26Z" transform="translate(0.5 0.5)"/><path class="cls-1" d="M94.89,9a9,9,0,0,1-9,9H18V85.89a9,9,0,0,1-18,0V10.52A10.53,10.53,0,0,1,10.52,0H85.89A9,9,0,0,1,94.89,9Z" transform="translate(0.5 0.5)"/><path class="cls-1" d="M9,388.37a9,9,0,0,1,9,9v67.89H85.89a9,9,0,0,1,0,18H10.52A10.53,10.53,0,0,1,0,472.74V397.37A9,9,0,0,1,9,388.37Z" transform="translate(0.5 0.5)"/><polygon class="cls-1" points="151.17 103.6 126.41 103.6 126.41 128.35 126.41 153.1 151.17 153.1 175.92 153.1 175.92 128.35 175.92 103.6 151.17 103.6"/><path class="cls-1" d="M200.17,53.59H76.41V202.11H224.93V53.59Zm0,49.51v74.26h-99v-99h99Z" transform="translate(0.5 0.5)"/><polygon class="cls-1" points="333.09 103.6 308.34 103.6 308.34 128.35 308.34 153.1 333.09 153.1 357.85 153.1 357.85 128.35 357.85 103.6 333.09 103.6"/><path class="cls-1" d="M382.1,53.59H258.33V202.11H406.85V53.59Zm0,49.51v74.26h-99v-99h99Z" transform="translate(0.5 0.5)"/><polygon class="cls-1" points="151.17 331.15 126.41 331.15 126.41 355.91 126.41 380.66 151.17 380.66 175.92 380.66 175.92 355.91 175.92 331.15 151.17 331.15"/><path class="cls-1" d="M200.17,281.15H76.41V429.67H224.93V281.15Zm0,49.5v74.26h-99v-99h99Z" transform="translate(0.5 0.5)"/><rect class="cls-1" x="258.83" y="400.46" width="29.7" height="29.7"/><rect class="cls-1" x="288.54" y="400.46" width="29.7" height="29.7"/><rect class="cls-1" x="258.83" y="370.76" width="29.7" height="29.7"/><rect class="cls-1" x="347.94" y="400.46" width="29.7" height="29.7"/><rect class="cls-1" x="318.24" y="370.76" width="29.7" height="29.7"/><rect class="cls-1" x="347.94" y="370.76" width="29.7" height="29.7"/><rect class="cls-1" x="377.65" y="370.76" width="29.7" height="29.7"/><rect class="cls-1" x="347.94" y="341.06" width="29.7" height="29.7"/><rect class="cls-1" x="347.94" y="311.35" width="29.7" height="29.7"/><rect class="cls-1" x="288.54" y="341.06" width="29.7" height="29.7"/><rect class="cls-1" x="258.83" y="311.35" width="29.7" height="29.7"/><rect class="cls-1" x="288.54" y="311.35" width="29.7" height="29.7"/><rect class="cls-1" x="318.24" y="311.35" width="29.7" height="29.7"/><rect class="cls-1" x="288.54" y="281.65" width="29.7" height="29.7"/><rect class="cls-1" x="377.65" y="311.35" width="29.7" height="29.7"/><rect class="cls-1" x="347.94" y="281.65" width="29.7" height="29.7"/><rect class="cls-1" x="377.65" y="281.65" width="29.7" height="29.7"/></svg>